<?xml version="1.0" encoding="utf-8"?>
<!-- Generator: Adobe Illustrator 22.0.1, SVG Export Plug-In . SVG Version: 6.00 Build 0)  -->
<svg version="1.1" id="Layer_1" xmlns="http://www.w3.org/2000/svg" xmlns:xlink="http://www.w3.org/1999/xlink" x="0px" y="0px"
	 viewBox="0 0 73.5 73.7" style="enable-background:new 0 0 73.5 73.7;" xml:space="preserve">
<style type="text/css">
	.st0{fill:#F9B715;}
	.st1{fill:#E6E6E6;}
	.st2{fill:none;}
</style>
<g>
	<path class="st0" d="M62.2,69.9c0,1.1,0.9,2,2,2c1.1,0,2-0.9,2-2v-3.2h3.3c1.1,0,1.9-0.9,1.9-1.9c0-1.1-0.9-1.9-1.9-1.9h-3.3v-3.2
		c0-1.1-0.9-2-2-2c-1.1,0-2,0.9-2,2v3.2h-3.3c-1.1,0-1.9,0.9-1.9,1.9c0,1.1,0.9,1.9,1.9,1.9h3.3V69.9z"/>
	<path class="st1" d="M33.1,8.9V4h3.7c1.8,0,3,0.8,3,2.5l0,0c0,1.4-1.1,2.4-2.9,2.4H33.1z M29.3,16c0,1.1,0.8,1.9,1.9,1.9
		c1.1,0,1.9-0.8,1.9-1.9v-3.7h3l3.7,4.7c0.4,0.6,1,1,1.9,1s1.8-0.7,1.8-1.7c0-0.6-0.2-1-0.6-1.4l-2.7-3.4c2.1-0.9,3.4-2.5,3.4-5.2
		l0,0c0-1.6-0.5-3-1.5-3.9c-1.1-1.1-2.8-1.7-5-1.7h-6c-1.1,0-1.9,0.8-1.9,1.9L29.3,16L29.3,16z"/>
	<path class="st1" d="M5.7,9.3V4h2.9c1.9,0,3.1,0.9,3.1,2.6l0,0c0,1.5-1.1,2.6-3,2.6h-3V9.3z M2,16c0,1.1,0.8,1.9,1.9,1.9
		s1.9-0.8,1.9-1.9v-3.4h2.9c3.8,0,6.9-2.1,6.9-6l0,0c0-3.5-2.5-5.9-6.6-5.9H3.8C2.8,0.6,2,1.4,2,2.5V16z"/>
	<path class="st1" d="M64.2,14.6c-3,0-5.2-2.5-5.2-5.4l0,0c0-2.9,2.1-5.3,5.1-5.3c3,0,5.2,2.5,5.2,5.4l0,0
		C69.4,12.2,67.3,14.6,64.2,14.6 M64.2,18.1c5.3,0,9.1-4,9.1-8.9l0,0c0-4.9-3.8-8.8-9.1-8.8c-5.3,0-9.1,4-9.1,8.9l0,0
		C55.1,14.2,58.9,18.1,64.2,18.1z"/>
	<path class="st1" d="M9.6,45.9c2.6,0,4.6-0.9,6-1.7c0.9-0.5,1.3-1.3,1.3-2.4v-4.2c0-1.1-0.8-1.9-1.9-1.9h-4.3
		c-0.9,0-1.6,0.7-1.6,1.6c0,0.9,0.7,1.6,1.6,1.6h2.5v2.5c-1,0.7-2.2,1-3.6,1c-3,0-5.2-2.3-5.2-5.4l0,0c0-2.9,2.2-5.3,4.9-5.3
		c1.6,0,2.7,0.4,3.7,1.2c0.3,0.2,0.6,0.4,1.2,0.4c1,0,1.9-0.8,1.9-1.9c0-0.7-0.4-1.2-0.8-1.5c-1.5-1.1-3.3-1.7-5.9-1.7
		c-5.2,0-9,4-9,8.9l0,0C0.5,42.1,4.2,45.9,9.6,45.9"/>
	<path class="st1" d="M33.1,36.7v-4.9h3.7c1.8,0,3,0.8,3,2.5l0,0c0,1.4-1.1,2.4-2.9,2.4C36.9,36.7,33.1,36.7,33.1,36.7z M29.3,43.8
		c0,1.1,0.8,1.9,1.9,1.9c1.1,0,1.9-0.8,1.9-1.9v-3.7h3l3.7,4.7c0.4,0.6,1,1,1.9,1s1.8-0.7,1.8-1.7c0-0.6-0.2-1-0.6-1.4l-2.7-3.4
		c2.1-0.9,3.4-2.5,3.4-5.2l0,0c0-1.6-0.5-3-1.5-3.9c-1.1-1.1-2.8-1.7-5-1.7h-6c-1.1,0-1.9,0.8-1.9,1.9L29.3,43.8L29.3,43.8z"/>
	<path class="st1" d="M61.8,38.5l2.4-5.7l2.4,5.7H61.8z M55.7,44c0,1,0.8,1.8,1.7,1.8c0.8,0,1.4-0.4,1.7-1.2l1.2-2.8h7.5l1.2,2.7
		c0.3,0.8,0.9,1.3,1.8,1.3c1,0,1.8-0.8,1.8-1.8c0-0.2-0.1-0.5-0.2-0.8l-6-13.5c-0.4-0.9-1.2-1.5-2.2-1.5H64c-1,0-1.8,0.6-2.2,1.5
		l-6,13.5C55.8,43.5,55.7,43.8,55.7,44z"/>
	<path class="st1" d="M34.9,66.2l2.4-5.7l2.4,5.7H34.9z M28.8,71.8c0,1,0.8,1.8,1.7,1.8c0.8,0,1.4-0.4,1.7-1.2l1.2-2.8h7.5l1.2,2.7
		c0.3,0.8,0.9,1.3,1.8,1.3c1,0,1.8-0.8,1.8-1.8c0-0.2-0.1-0.5-0.2-0.8l-6-13.5c-0.4-0.9-1.2-1.5-2.2-1.5h-0.1c-1,0-1.8,0.6-2.2,1.5
		L29,71C28.9,71.2,28.8,71.5,28.8,71.8z"/>
	<path class="st1" d="M8.7,61.9l5.3-5.3c0.6-0.5,1.3-0.7,2.1-0.4c0.7,0.3,1.2,1,1.2,1.7v13.7c0,1-0.8,1.9-1.9,1.9
		c-1,0-1.9-0.8-1.9-1.9v-9.2L10,65.8c-0.7,0.7-1.9,0.7-2.7,0l-3.4-3.4v9.2c0,1-0.8,1.9-1.9,1.9c-1,0-1.9-0.8-1.9-1.9V57.9
		c0-0.8,0.4-1.4,1.2-1.7c0.7-0.3,1.5-0.1,2.1,0.4L8.7,61.9z"/>
</g>
<rect x="-28.6" y="-28.9" class="st2" width="130.8" height="130.8"/>
</svg>
